<?xml version="1.0" encoding="utf-8"?>
<!-- Generator: Adobe Illustrator 26.4.1, SVG Export Plug-In . SVG Version: 6.00 Build 0)  -->
<svg version="1.1" id="Capa_1" xmlns="http://www.w3.org/2000/svg" xmlns:xlink="http://www.w3.org/1999/xlink" x="0px" y="0px"
	 viewBox="0 0 595.276 841.89" enable-background="new 0 0 595.276 841.89" xml:space="preserve">
<g>
	<path fill="#FFFFFF" d="M226.917,531.443l-7.629-32.759l7.435-1.731l16.328,21.523l-1.533,0.357l5.093-26.512l7.481-1.743
		l7.629,32.759l-7.761,1.808l-4.675-20.074l1.999-0.466l-4.619,22.239l-4.832,1.125l-14.015-17.899l2.137-0.497l4.675,20.074
		L226.917,531.443z"/>
	<path fill="#FFFFFF" d="M263.811,522.851l7.705-36.33l6.971-1.623l23.056,29.166l-8.597,2.002l-6.048-8.095l3.851,1.602
		l-19.237,4.48l2.701-3.128l-1.804,9.924L263.811,522.851z M277.011,494.548l-2.418,14.231l-1.81-1.881l13.615-3.171l-0.653,2.454
		l-8.502-11.688L277.011,494.548z"/>
	<path fill="#FFFFFF" d="M319.599,510.398c-3.811,0.887-7.187,0.939-10.129,0.155s-5.379-2.275-7.312-4.47
		c-1.932-2.195-3.288-4.967-4.066-8.312c-0.808-3.469-0.774-6.653,0.102-9.552c0.876-2.897,2.531-5.365,4.964-7.4
		c2.432-2.037,5.584-3.505,9.457-4.407c2.385-0.555,4.563-0.77,6.537-0.641c1.973,0.128,3.748,0.565,5.325,1.307l-1.123,7.169
		c-1.111-0.427-2.135-0.719-3.069-0.877c-0.936-0.158-1.862-0.212-2.781-0.161s-1.952,0.21-3.098,0.477
		c-3.223,0.751-5.438,2.141-6.646,4.169c-1.21,2.028-1.442,4.639-0.699,7.829c0.735,3.16,2.019,5.377,3.85,6.647
		c1.831,1.271,4.327,1.54,7.487,0.804c0.96-0.224,1.983-0.56,3.071-1.009c1.087-0.45,2.176-0.997,3.267-1.643l-0.818,3.424
		l-1.818-7.807l-6.784,1.58l-1.386-5.948l13.801-3.214l3.819,16.402c-1.57,1.248-3.397,2.344-5.48,3.285
		C323.986,509.148,321.829,509.878,319.599,510.398z"/>
	<path fill="#FFFFFF" d="M337.602,505.666l-7.629-32.759l8.597-2.002l7.629,32.759L337.602,505.666z"/>
	<path fill="#FFFFFF" d="M368.807,498.938c-3.562,0.83-6.8,0.85-9.711,0.059c-2.911-0.792-5.367-2.294-7.368-4.507
		c-2.001-2.21-3.398-5.021-4.191-8.428c-0.794-3.408-0.78-6.538,0.042-9.392c0.821-2.853,2.363-5.277,4.625-7.273
		c2.261-1.997,5.174-3.409,8.736-4.239c2.261-0.526,4.393-0.704,6.392-0.533c1.999,0.17,3.763,0.666,5.294,1.486l-0.986,7.333
		c-1.664-0.69-3.141-1.106-4.43-1.247c-1.291-0.141-2.695-0.034-4.212,0.319c-2.789,0.649-4.745,1.962-5.868,3.938
		c-1.124,1.977-1.332,4.482-0.625,7.519c0.714,3.066,2.012,5.238,3.893,6.515c1.882,1.276,4.216,1.591,7.005,0.941
		c1.517-0.354,2.823-0.878,3.919-1.575c1.095-0.695,2.236-1.721,3.424-3.075l4.124,6.143c-1.011,1.412-2.374,2.636-4.093,3.673
		C373.059,497.63,371.067,498.411,368.807,498.938z"/>
	<path fill="#FFFFFF" stroke="#000000" stroke-miterlimit="10" d="M237.848,574.646l-6.716-28.838l5.563-1.296l18.823,14.722
		l-1.187,0.275l-4.22-18.122l6.995-1.629l6.716,28.839l-5.563,1.296l-18.742-14.739l1.187-0.276l4.22,18.121L237.848,574.646z"/>
	<path fill="#FFFFFF" stroke="#000000" stroke-miterlimit="10" d="M269.14,567.359l-6.716-28.839l7.567-1.762l6.716,28.839
		L269.14,567.359z"/>
	<path fill="#FFFFFF" stroke="#000000" stroke-miterlimit="10" d="M296.856,561.379c-3.354,0.781-6.327,0.827-8.917,0.136
		c-2.591-0.69-4.735-2.002-6.437-3.934c-1.7-1.934-2.893-4.372-3.579-7.318c-0.711-3.054-0.682-5.855,0.09-8.408
		c0.771-2.551,2.228-4.723,4.369-6.516c2.141-1.793,4.916-3.085,8.325-3.879c2.1-0.489,4.018-0.678,5.755-0.564
		s3.301,0.497,4.689,1.15l-0.989,6.311c-0.979-0.375-1.88-0.633-2.703-0.771c-0.823-0.139-1.639-0.187-2.448-0.142
		c-0.809,0.044-1.718,0.186-2.727,0.42c-2.837,0.661-4.787,1.884-5.851,3.669c-1.065,1.787-1.271,4.083-0.616,6.892
		c0.648,2.782,1.777,4.733,3.39,5.853c1.611,1.12,3.809,1.356,6.59,0.708c0.845-0.196,1.746-0.493,2.704-0.889
		c0.958-0.395,1.916-0.878,2.876-1.446l-0.721,3.014l-1.601-6.871l-5.973,1.391l-1.219-5.236l12.149-2.829l3.363,14.44
		c-1.383,1.098-2.991,2.062-4.825,2.892C300.718,560.278,298.819,560.922,296.856,561.379z"/>
	<path fill="#FFFFFF" stroke="#000000" stroke-miterlimit="10" d="M312.704,557.214l-6.716-28.839l7.567-1.763l2.592,11.128
		l11.617-2.705l-2.592-11.128l7.568-1.763l6.716,28.839l-7.568,1.763l-2.686-11.535l-11.617,2.705l2.686,11.535L312.704,557.214z"/>
	<path fill="#FFFFFF" stroke="#000000" stroke-miterlimit="10" d="M351.359,548.212l-5.296-22.744l-8.754,2.039l-1.42-6.096
		l25.075-5.84l1.42,6.096l-8.754,2.039l5.297,22.743L351.359,548.212z"/>
	<path fill="#FFFFFF" stroke="#000000" stroke-miterlimit="10" d="M380.957,541.794c-2.318,0.539-4.585,0.772-6.802,0.699
		c-2.216-0.073-4.145-0.422-5.785-1.047l0.765-6.345c1.033,0.364,2.13,0.626,3.289,0.788c1.158,0.161,2.344,0.223,3.558,0.185
		c1.212-0.038,2.419-0.197,3.619-0.477c1.8-0.419,2.994-0.941,3.581-1.567c0.587-0.624,0.795-1.306,0.623-2.042
		c-0.152-0.655-0.503-1.112-1.052-1.371c-0.55-0.261-1.497-0.379-2.842-0.353l-5.229,0.14c-2.773,0.07-4.971-0.417-6.594-1.462
		c-1.624-1.045-2.689-2.658-3.197-4.84c-0.444-1.908-0.319-3.684,0.376-5.327c0.696-1.643,1.88-3.068,3.554-4.277
		c1.674-1.21,3.751-2.103,6.232-2.681c2.045-0.477,4.033-0.645,5.963-0.505c1.931,0.14,3.583,0.567,4.957,1.282l-0.851,5.977
		c-1.275-0.536-2.645-0.856-4.106-0.963c-1.462-0.104-3.024,0.036-4.688,0.424c-1.582,0.368-2.72,0.885-3.413,1.549
		c-0.693,0.665-0.938,1.434-0.735,2.306c0.141,0.601,0.498,1.057,1.073,1.367c0.576,0.313,1.536,0.455,2.882,0.43l5.138-0.161
		c2.765-0.098,4.965,0.367,6.599,1.395c1.634,1.028,2.702,2.62,3.203,4.773c0.433,1.854,0.299,3.597-0.4,5.226
		c-0.698,1.63-1.873,3.038-3.521,4.227C385.503,540.331,383.438,541.216,380.957,541.794z"/>
	<path fill="#FFFFFF" d="M81.891,502.977"/>
	<path fill="#FFFFFF" d="M115.739,630.238"/>
	<path fill="#FFFFFF" d="M139.048,558.824l13.825-2.974c1.59-0.342,2.769-0.95,3.535-1.825c0.767-0.873,0.983-2.083,0.651-3.627
		s-1.027-2.557-2.085-3.04c-1.059-0.481-2.383-0.552-3.974-0.21l-13.825,2.974c-1.605,0.346-2.788,0.955-3.547,1.827
		c-0.758,0.874-0.971,2.082-0.639,3.626s1.023,2.559,2.073,3.042C136.113,559.1,137.441,559.169,139.048,558.824z"/>
	<path fill="#FFFFFF" d="M132.469,532.215l0.351-0.075c1.326-0.285,2.311-0.904,2.953-1.858c0.644-0.953,0.828-2.07,0.553-3.35
		c-0.275-1.278-0.902-2.22-1.881-2.826c-0.979-0.604-2.146-0.761-3.503-0.47l-0.328,0.07c-1.263,0.272-2.193,0.88-2.79,1.823
		c-0.596,0.944-0.757,2.057-0.481,3.335c0.275,1.279,0.878,2.226,1.81,2.841C130.084,532.321,131.19,532.491,132.469,532.215z"/>
	<path fill="#FFFFFF" d="M143.734,529.12c1.03,0.732,2.239,0.949,3.627,0.651l0.351-0.076c1.403-0.302,2.432-1,3.086-2.095
		c0.654-1.095,0.819-2.392,0.497-3.889c-0.322-1.497-1.014-2.609-2.075-3.334c-1.062-0.727-2.295-0.938-3.698-0.637l-0.327,0.07
		c-1.372,0.295-2.378,0.988-3.016,2.081c-0.638,1.091-0.796,2.386-0.475,3.882C142.027,527.273,142.704,528.388,143.734,529.12z"/>
	<path fill="#FFFFFF" d="M160.458,572.856c-1.058-0.481-2.383-0.552-3.973-0.21l-13.825,2.974c-1.606,0.346-2.788,0.955-3.548,1.827
		c-0.758,0.874-0.972,2.082-0.64,3.626s1.024,2.559,2.073,3.042c1.052,0.483,2.38,0.553,3.985,0.207l13.825-2.974
		c1.591-0.342,2.77-0.95,3.536-1.825c0.766-0.873,0.983-2.083,0.651-3.627S161.517,573.339,160.458,572.856z"/>
	<path fill="#FFFFFF" d="M162.996,469.881l-68.574,15.345c5.301,20.25-2.541,30.232-21.591,31.457l7.198,31.557
		c5.177-1.271,10.833-0.611,15.789,2.307c10.079,5.934,13.439,18.916,7.505,28.995c-3.143,5.338-8.267,8.768-13.885,9.954
		l7.071,31.003c18.099-5.824,29.328,0.803,32.937,21.246L198.02,626.4L162.996,469.881z M121.962,530.021
		c-0.641-2.979-0.339-5.539,0.905-7.683c1.244-2.145,3.215-3.506,5.913-4.087l0.842-0.181c1.403-0.302,2.802-0.19,4.195,0.333
		c1.395,0.523,2.548,1.357,3.462,2.498c0.439-1.676,1.309-3.128,2.612-4.355c1.303-1.226,2.804-2.021,4.504-2.388l0.562-0.12
		c1.902-0.409,3.657-0.33,5.264,0.237c1.608,0.569,2.971,1.561,4.091,2.976c1.121,1.415,1.909,3.184,2.365,5.304
		c0.456,2.121,0.465,4.058,0.025,5.808c-0.439,1.751-1.274,3.216-2.507,4.394c-1.23,1.179-2.798,1.973-4.701,2.382l-0.561,0.12
		c-1.7,0.366-3.395,0.266-5.083-0.302c-1.688-0.566-3.075-1.517-4.162-2.85c-0.386,1.39-1.112,2.605-2.176,3.65
		c-1.064,1.044-2.283,1.714-3.655,2.009l-0.842,0.181c-2.698,0.581-5.054,0.149-7.07-1.293
		C123.931,535.21,122.603,532.999,121.962,530.021z M127.633,556.727c-0.708-3.291-0.388-5.954,0.961-7.99
		c1.349-2.035,3.536-3.378,6.562-4.029l15.462-3.325c3.01-0.647,5.553-0.317,7.629,0.989c2.076,1.309,3.466,3.599,4.171,6.874
		c0.711,3.307,0.376,5.977-1.007,8.012c-1.381,2.035-3.553,3.37-6.517,4.008l-15.462,3.325c-3.01,0.647-5.553,0.317-7.629-0.99
		C129.727,562.292,128.337,560.001,127.633,556.727z M160.377,586.763l-15.462,3.325c-3.01,0.647-5.552,0.317-7.629-0.99
		c-2.075-1.308-3.466-3.599-4.17-6.873c-0.708-3.291-0.388-5.954,0.961-7.99c1.35-2.035,3.536-3.378,6.562-4.029l15.463-3.325
		c3.01-0.647,5.553-0.317,7.628,0.989c2.077,1.309,3.467,3.599,4.171,6.874c0.711,3.307,0.376,5.977-1.006,8.012
		S163.341,586.125,160.377,586.763z"/>
	<path fill="#FFFFFF" d="M470.396,484.441l-14.006,3.182c-1.611,0.366-2.957,0.311-4.038-0.167c-1.08-0.476-1.798-1.497-2.153-3.061
		c-0.355-1.564-0.149-2.794,0.618-3.693c0.769-0.897,1.958-1.529,3.57-1.895l14.006-3.182c1.627-0.369,2.977-0.314,4.05,0.164
		c1.072,0.48,1.786,1.502,2.142,3.066c0.355,1.564,0.153,2.795-0.607,3.69C473.217,483.438,472.023,484.071,470.396,484.441z"/>
	<path fill="#FFFFFF" d="M465.059,457.117l-0.355,0.081c-1.344,0.305-2.515,0.157-3.516-0.447c-1.001-0.602-1.649-1.552-1.944-2.848
		c-0.294-1.295-0.12-2.431,0.522-3.408c0.642-0.976,1.651-1.62,3.025-1.933l0.332-0.076c1.28-0.29,2.396-0.129,3.35,0.484
		c0.953,0.615,1.578,1.57,1.872,2.865c0.295,1.296,0.144,2.426-0.45,3.391C467.301,456.193,466.355,456.823,465.059,457.117z"/>
	<path fill="#FFFFFF" d="M453.359,459.091c-0.635,1.116-1.656,1.833-3.062,2.153l-0.356,0.08c-1.422,0.323-2.668,0.121-3.739-0.608
		c-1.071-0.728-1.779-1.852-2.123-3.369c-0.345-1.517-0.184-2.837,0.483-3.959c0.666-1.124,1.712-1.847,3.133-2.17l0.331-0.075
		c1.39-0.316,2.613-0.108,3.669,0.625c1.055,0.731,1.755,1.856,2.1,3.372C454.139,456.659,453.994,457.976,453.359,459.091z"/>
	<path fill="#FFFFFF" d="M456.686,506.534c0.768-0.897,1.959-1.529,3.569-1.895l14.006-3.182c1.628-0.37,2.977-0.314,4.05,0.163
		c1.072,0.48,1.787,1.501,2.142,3.066c0.355,1.564,0.153,2.795-0.607,3.69c-0.762,0.896-1.955,1.528-3.582,1.897l-14.006,3.182
		c-1.612,0.367-2.958,0.311-4.038-0.167c-1.079-0.476-1.798-1.497-2.153-3.061C455.712,508.663,455.919,507.432,456.686,506.534z"/>
	<path fill="#FFFFFF" d="M445.024,571.934l77.728-16.236c-5.431-20.373,2.073-31.286,21.235-33.673l-6.765-31.582
		c-5.682,1.313-11.87,0.349-17.051-3.221c-9.782-6.741-12.247-20.136-5.505-29.918c3.315-4.81,8.242-7.84,13.554-8.887
		l-6.886-32.146c-18.07,7.031-29.567,1.196-33.357-19.725l-77.728,16.236L445.024,571.934z M472.967,458.411
		c-1.239,2.192-3.224,3.598-5.957,4.219l-0.853,0.194c-1.39,0.316-2.799,0.221-4.226-0.285c-1.427-0.507-2.617-1.315-3.568-2.43
		c-0.43,1.693-1.3,3.162-2.612,4.407c-1.312,1.245-2.829,2.064-4.552,2.455l-0.568,0.13c-1.928,0.438-3.711,0.378-5.349-0.18
		c-1.639-0.557-3.036-1.548-4.19-2.973c-1.154-1.424-1.975-3.211-2.464-5.36c-0.488-2.148-0.52-4.114-0.094-5.897
		c0.426-1.783,1.257-3.28,2.494-4.493c1.237-1.211,2.819-2.035,4.746-2.473l0.569-0.13c1.723-0.391,3.446-0.301,5.171,0.27
		c1.726,0.573,3.149,1.537,4.271,2.893c0.353-1.442,1.059-2.704,2.119-3.784c1.059-1.079,2.3-1.78,3.721-2.103l0.853-0.194
		c2.734-0.62,5.132-0.211,7.196,1.232c2.064,1.441,3.438,3.67,4.124,6.688C474.482,453.614,474.206,456.219,472.967,458.411z
		 M479.114,485.737c-1.352,2.093-3.553,3.487-6.602,4.179l-15.664,3.559c-3.003,0.682-5.575,0.383-7.718-0.9
		c-2.145-1.282-3.597-3.598-4.358-6.948c-0.753-3.319-0.454-6.023,0.897-8.117c1.353-2.093,3.553-3.486,6.602-4.178l15.664-3.559
		c3.065-0.696,5.655-0.396,7.769,0.901c2.114,1.298,3.55,3.613,4.307,6.947C480.765,480.938,480.466,483.644,479.114,485.737z
		 M454.998,518.407c-2.144-1.283-3.596-3.598-4.358-6.948c-0.754-3.318-0.455-6.022,0.897-8.117
		c1.352-2.092,3.552-3.485,6.602-4.178l15.665-3.56c3.065-0.696,5.654-0.396,7.769,0.901c2.114,1.298,3.549,3.613,4.307,6.947
		c0.754,3.317,0.454,6.023-0.897,8.116c-1.353,2.094-3.553,3.487-6.602,4.179l-15.665,3.56
		C459.715,519.989,457.143,519.69,454.998,518.407z"/>
	<path fill="#FFFFFF" d="M177.362,466.719l35.024,156.519L430.86,574.35l-35.024-156.519L177.362,466.719z M217.499,588.702
		l-20.792-92.92c-2.07-9.253,3.752-18.432,13.005-20.503l160.51-35.917c9.253-2.07,18.432,3.752,20.503,13.005l20.792,92.92
		c2.07,9.253-3.752,18.432-13.005,20.503l-160.51,35.917C228.748,603.777,219.569,597.955,217.499,588.702z"/>
</g>
</svg>
